<?xml version="1.0" encoding="UTF-8"?>
<svg width="300px" height="300px" viewBox="0 0 300 300" version="1.1" xmlns="http://www.w3.org/2000/svg" xmlns:xlink="http://www.w3.org/1999/xlink">
    <!-- Generator: Sketch 50.2 (55047) - http://www.bohemiancoding.com/sketch -->
    <title>Combined-Shape</title>
    <desc>Created with Sketch.</desc>
    <defs></defs>
    <g id="Page-1" stroke="none" stroke-width="1" fill="none" fill-rule="evenodd">
        <path d="M104.480821,104.47397 L195.533149,104.47397 L195.533149,195.52603 L104.480821,195.52603 L104.480821,104.47397 Z M104.480821,208.958866 L195.533149,208.958866 L195.533149,300 L104.480821,300 L104.480821,208.958866 Z M104.480821,0 L195.533149,0 L195.533149,91.041134 L104.480821,91.041134 L104.480821,0 Z M0,104.47397 L91.047985,104.47397 L91.047985,195.52603 L0,195.52603 L0,104.47397 Z M208.965985,0 L300,0 L300,91.041134 L208.965985,91.041134 L208.965985,0 Z M0,208.958866 L91.047985,208.958866 L91.047985,300 L0,300 L0,208.958866 Z M208.965985,208.958866 L300,208.958866 L300,300 L208.965985,300 L208.965985,208.958866 Z M0,0 L91.047985,0 L91.047985,91.041134 L0,91.041134 L0,0 Z M208.965985,104.47397 L300,104.47397 L300,195.52603 L208.965985,195.52603 L208.965985,104.47397 Z" id="Combined-Shape" fill="#FF8A00" fill-rule="nonzero"></path>
    </g>
</svg>